<svg width="115" height="132" viewBox="0 0 115 132" fill="none" xmlns="http://www.w3.org/2000/svg">
<path d="M57.678 12.8086L79.5482 25.4379L90.6373 19.0532L57.678 0.011322L2.62442 31.8225L13.6575 38.2072L57.678 12.8086Z" fill="#424351"/>
<path d="M101.671 25.4379L57.6782 50.8365L35.808 38.2072L24.7469 44.5918L57.6782 63.6057L112.76 31.8225L101.671 25.4379Z" fill="#424351"/>
<path d="M11.4733 68.1705L0.41217 61.7858V99.8137L55.4657 131.625V118.856L11.4733 93.429V68.1705Z" fill="#424351"/>
<path d="M0.41217 49.016L44.4046 74.4146V99.6731L55.4657 106.086V68.0299L0.41217 36.2467V49.016Z" fill="#424351"/>
<path d="M92.8498 61.7856V49.0163L59.8905 68.0302V131.625L70.9516 125.24V74.4148L92.8498 61.7856Z" fill="#424351"/>
<path d="M103.883 42.6313V93.4285L82.0127 106.086V118.855L114.972 99.8131V36.2467L103.883 42.6313Z" fill="#424351"/>
</svg>
